<?xml version="1.0" standalone="no"?>
<!DOCTYPE svg PUBLIC "-//W3C//DTD SVG 1.1//EN"
  "http://www.w3.org/Graphics/SVG/1.1/DTD/svg11.dtd">
<svg xmlns="http://www.w3.org/2000/svg" version="1.1" class="railroad-diagram" width="313" height="122" viewBox="0 0 313 122">
<defs><style type="text/css"><![CDATA[ svg.railroad-diagram {
  background-color: hsl(30,20%,95%);
}
svg.railroad-diagram path {
  stroke-width: 3;
  stroke: black;
  fill: none;
}
svg.railroad-diagram text {
  font: bold 14px monospace;
  text-anchor: middle;
  cursor: pointer;
}
svg.railroad-diagram text.label {
  text-anchor: start;
}
svg.railroad-diagram text.comment {
  font: italic 12px monospace;
}
svg.railroad-diagram rect {
  stroke-width: 3;
  stroke: black;
  fill: hsl(120,100%,90%);
}
 ]]></style></defs>
<g transform="translate(.5 .5)">
<path d="M 20 21 v 20 m 10 -20 v 20 m -10 -10 h 20.5"></path>
<g>
<path d="M40 31h0"></path>
<path d="M272 31h0"></path>
<path d="M40 31h20"></path>
<g>
<path d="M60 31h0"></path>
<path d="M252 31h0"></path>
<path d="M60 31h10"></path>
<g>
<path d="M70 31h0"></path>
<path d="M122 31h0"></path>
<rect x="70" y="20" width="52" height="22"></rect>
<text x="96" y="35">Expr</text>
</g>
<path d="M122 31h10"></path>
<path d="M132 31h10"></path>
<g>
<path d="M142 31h0"></path>
<path d="M170 31h0"></path>
<rect x="142" y="20" width="28" height="22" rx="10" ry="10"></rect>
<text x="156" y="35">+</text>
</g>
<path d="M170 31h10"></path>
<path d="M180 31h10"></path>
<g>
<path d="M190 31h0"></path>
<path d="M242 31h0"></path>
<rect x="190" y="20" width="52" height="22"></rect>
<text x="216" y="35">Expr</text>
</g>
<path d="M242 31h10"></path>
</g>
<path d="M252 31h20"></path>
<path d="M40 31a10 10 0 0 1 10 10v10a10 10 0 0 0 10 10"></path>
<g>
<path d="M60 61h0"></path>
<path d="M252 61h0"></path>
<path d="M60 61h10"></path>
<g>
<path d="M70 61h0"></path>
<path d="M122 61h0"></path>
<rect x="70" y="50" width="52" height="22"></rect>
<text x="96" y="65">Expr</text>
</g>
<path d="M122 61h10"></path>
<path d="M132 61h10"></path>
<g>
<path d="M142 61h0"></path>
<path d="M170 61h0"></path>
<rect x="142" y="50" width="28" height="22" rx="10" ry="10"></rect>
<text x="156" y="65">&#42;</text>
</g>
<path d="M170 61h10"></path>
<path d="M180 61h10"></path>
<g>
<path d="M190 61h0"></path>
<path d="M242 61h0"></path>
<rect x="190" y="50" width="52" height="22"></rect>
<text x="216" y="65">Expr</text>
</g>
<path d="M242 61h10"></path>
</g>
<path d="M252 61a10 10 0 0 0 10 -10v-10a10 10 0 0 1 10 -10"></path>
<path d="M40 31a10 10 0 0 1 10 10v40a10 10 0 0 0 10 10"></path>
<g>
<path d="M60 91h74"></path>
<path d="M178 91h74"></path>
<rect x="134" y="80" width="44" height="22"></rect>
<text x="156" y="95">Num</text>
</g>
<path d="M252 91a10 10 0 0 0 10 -10v-40a10 10 0 0 1 10 -10"></path>
</g>
<path d="M 272 31 h 20 m -10 -10 v 20 m 10 -20 v 20"></path>
</g>
</svg>
