<?xml version="1.0" standalone="no"?>
<!DOCTYPE svg PUBLIC "-//W3C//DTD SVG 1.1//EN"
  "http://www.w3.org/Graphics/SVG/1.1/DTD/svg11.dtd">
<svg xmlns="http://www.w3.org/2000/svg" version="1.1" class="railroad-diagram" width="205" height="280" viewBox="0 0 205 280">
<defs><style type="text/css"><![CDATA[ svg.railroad-diagram {
  background-color: hsl(30,20%,95%);
}
svg.railroad-diagram path {
  stroke-width: 3;
  stroke: black;
  fill: none;
}
svg.railroad-diagram text {
  font: bold 14px monospace;
  text-anchor: middle;
  cursor: pointer;
}
svg.railroad-diagram text.label {
  text-anchor: start;
}
svg.railroad-diagram text.comment {
  font: italic 12px monospace;
}
svg.railroad-diagram rect {
  stroke-width: 3;
  stroke: black;
  fill: hsl(120,100%,90%);
}
 ]]></style></defs>
<g transform="translate(.5 .5)">
<path d="M 20 21 v 20 m 10 -20 v 20 m -10 -10 h 20.5"></path>
<path d="M40 31h10"></path>
<g>
<path d="M50 31h0"></path>
<path d="M154 31h0"></path>
<path d="M50 31h10"></path>
<g>
<path d="M60 31h0"></path>
<path d="M144 31h0"></path>
<path d="M60 31h20"></path>
<g>
<path d="M80 31h8"></path>
<path d="M116 31h8"></path>
<rect x="88" y="20" width="28" height="22"></rect>
<text x="102" y="35">0</text>
</g>
<path d="M124 31h20"></path>
<path d="M60 31a10 10 0 0 1 10 10v10a10 10 0 0 0 10 10"></path>
<g>
<path d="M80 61h8"></path>
<path d="M116 61h8"></path>
<rect x="88" y="50" width="28" height="22"></rect>
<text x="102" y="65">1</text>
</g>
<path d="M124 61a10 10 0 0 0 10 -10v-10a10 10 0 0 1 10 -10"></path>
<path d="M60 31a10 10 0 0 1 10 10v40a10 10 0 0 0 10 10"></path>
<g>
<path d="M80 91h8"></path>
<path d="M116 91h8"></path>
<rect x="88" y="80" width="28" height="22"></rect>
<text x="102" y="95">&#95;</text>
</g>
<path d="M124 91a10 10 0 0 0 10 -10v-40a10 10 0 0 1 10 -10"></path>
<path d="M60 31a10 10 0 0 1 10 10v70a10 10 0 0 0 10 10"></path>
<g>
<path d="M80 121h8"></path>
<path d="M116 121h8"></path>
<rect x="88" y="110" width="28" height="22"></rect>
<text x="102" y="125">9</text>
</g>
<path d="M124 121a10 10 0 0 0 10 -10v-70a10 10 0 0 1 10 -10"></path>
<path d="M60 31a10 10 0 0 1 10 10v100a10 10 0 0 0 10 10"></path>
<g>
<path d="M80 151h8"></path>
<path d="M116 151h8"></path>
<rect x="88" y="140" width="28" height="22"></rect>
<text x="102" y="155">A</text>
</g>
<path d="M124 151a10 10 0 0 0 10 -10v-100a10 10 0 0 1 10 -10"></path>
<path d="M60 31a10 10 0 0 1 10 10v130a10 10 0 0 0 10 10"></path>
<g>
<path d="M80 181h8"></path>
<path d="M116 181h8"></path>
<rect x="88" y="170" width="28" height="22"></rect>
<text x="102" y="185">B</text>
</g>
<path d="M124 181a10 10 0 0 0 10 -10v-130a10 10 0 0 1 10 -10"></path>
<path d="M60 31a10 10 0 0 1 10 10v160a10 10 0 0 0 10 10"></path>
<g>
<path d="M80 211h0"></path>
<path d="M124 211h0"></path>
<rect x="80" y="200" width="44" height="22"></rect>
<text x="102" y="215">&#95;&#95;&#95;</text>
</g>
<path d="M124 211a10 10 0 0 0 10 -10v-160a10 10 0 0 1 10 -10"></path>
<path d="M60 31a10 10 0 0 1 10 10v190a10 10 0 0 0 10 10"></path>
<g>
<path d="M80 241h8"></path>
<path d="M116 241h8"></path>
<rect x="88" y="230" width="28" height="22"></rect>
<text x="102" y="245">F</text>
</g>
<path d="M124 241a10 10 0 0 0 10 -10v-190a10 10 0 0 1 10 -10"></path>
</g>
<path d="M144 31h10"></path>
<path d="M60 31a10 10 0 0 0 -10 10v209a10 10 0 0 0 10 10"></path>
<g>
<path d="M60 260h84"></path>
</g>
<path d="M144 260a10 10 0 0 0 10 -10v-209a10 10 0 0 0 -10 -10"></path>
</g>
<path d="M154 31h10"></path>
<path d="M 164 31 h 20 m -10 -10 v 20 m 10 -20 v 20"></path>
</g>
</svg>
