<?xml version="1.0" encoding="UTF-8" standalone="no"?>
<!DOCTYPE svg PUBLIC "-//W3C//DTD SVG 1.1//EN"
 "http://www.w3.org/Graphics/SVG/1.1/DTD/svg11.dtd">
<!-- Generated by graphviz version 2.38.0 (20140413.2041)
 -->
<!-- Title: G Pages: 1 -->
<svg width="370pt" height="191pt"
 viewBox="0.00 0.00 369.50 191.00" xmlns="http://www.w3.org/2000/svg" xmlns:xlink="http://www.w3.org/1999/xlink">
<g id="graph0" class="graph" transform="scale(1 1) rotate(0) translate(4 187)">
<title>G</title>
<polygon fill="white" stroke="none" points="-4,4 -4,-187 365.5,-187 365.5,4 -4,4"/>
<!-- node1 -->
<g id="node1" class="node"><title>node1</title>
<polygon fill="none" stroke="black" points="0,-0.5 0,-36.5 128,-36.5 128,-0.5 0,-0.5"/>
<text text-anchor="middle" x="49" y="-14.8" font-family="Times New Roman,serif" font-size="14.00">NumericLiteral</text>
<polyline fill="none" stroke="black" points="98,-0.5 98,-36.5 "/>
<text text-anchor="middle" x="113" y="-14.8" font-family="Times New Roman,serif" font-size="14.00">12</text>
</g>
<!-- node2 -->
<g id="node2" class="node"><title>node2</title>
<polygon fill="none" stroke="black" points="28,-73.5 28,-109.5 222,-109.5 222,-73.5 28,-73.5"/>
<text text-anchor="middle" x="82" y="-87.8" font-family="Times New Roman,serif" font-size="14.00">BinaryOperation</text>
<polyline fill="none" stroke="black" points="136,-73.5 136,-109.5 "/>
<text text-anchor="middle" x="179" y="-87.8" font-family="Times New Roman,serif" font-size="14.00">MULTIPLY</text>
</g>
<!-- node2&#45;&gt;node1 -->
<g id="edge1" class="edge"><title>node2&#45;&gt;node1</title>
<path fill="none" stroke="black" d="M110.234,-73.3129C102.741,-64.5918 93.5036,-53.8402 85.2606,-44.2459"/>
<polygon fill="black" stroke="black" points="87.8019,-41.833 78.6304,-36.5288 82.4924,-46.3947 87.8019,-41.833"/>
</g>
<!-- node3 -->
<g id="node3" class="node"><title>node3</title>
<polygon fill="none" stroke="black" points="146,-0.5 146,-36.5 228,-36.5 228,-0.5 146,-0.5"/>
<text text-anchor="middle" x="177" y="-14.8" font-family="Times New Roman,serif" font-size="14.00">Variable</text>
<polyline fill="none" stroke="black" points="208,-0.5 208,-36.5 "/>
<text text-anchor="middle" x="218" y="-14.8" font-family="Times New Roman,serif" font-size="14.00">i</text>
</g>
<!-- node2&#45;&gt;node3 -->
<g id="edge2" class="edge"><title>node2&#45;&gt;node3</title>
<path fill="none" stroke="black" d="M140.008,-73.3129C147.624,-64.5918 157.013,-53.8402 165.391,-44.2459"/>
<polygon fill="black" stroke="black" points="168.189,-46.3634 172.13,-36.5288 162.916,-41.7591 168.189,-46.3634"/>
</g>
<!-- node4 -->
<g id="node4" class="node"><title>node4</title>
<polygon fill="none" stroke="black" points="136,-146.5 136,-182.5 290,-182.5 290,-146.5 136,-146.5"/>
<text text-anchor="middle" x="190" y="-160.8" font-family="Times New Roman,serif" font-size="14.00">BinaryOperation</text>
<polyline fill="none" stroke="black" points="244,-146.5 244,-182.5 "/>
<text text-anchor="middle" x="267" y="-160.8" font-family="Times New Roman,serif" font-size="14.00">ADD</text>
</g>
<!-- node4&#45;&gt;node2 -->
<g id="edge3" class="edge"><title>node4&#45;&gt;node2</title>
<path fill="none" stroke="black" d="M191.698,-146.313C180.348,-137.156 166.224,-125.76 153.899,-115.816"/>
<polygon fill="black" stroke="black" points="156.087,-113.084 146.106,-109.529 151.691,-118.532 156.087,-113.084"/>
</g>
<!-- node5 -->
<g id="node5" class="node"><title>node5</title>
<polygon fill="none" stroke="black" points="240.5,-73.5 240.5,-109.5 361.5,-109.5 361.5,-73.5 240.5,-73.5"/>
<text text-anchor="middle" x="289.5" y="-87.8" font-family="Times New Roman,serif" font-size="14.00">NumericLiteral</text>
<polyline fill="none" stroke="black" points="338.5,-73.5 338.5,-109.5 "/>
<text text-anchor="middle" x="350" y="-87.8" font-family="Times New Roman,serif" font-size="14.00">5</text>
</g>
<!-- node4&#45;&gt;node5 -->
<g id="edge4" class="edge"><title>node4&#45;&gt;node5</title>
<path fill="none" stroke="black" d="M234.302,-146.313C245.652,-137.156 259.776,-125.76 272.101,-115.816"/>
<polygon fill="black" stroke="black" points="274.309,-118.532 279.894,-109.529 269.913,-113.084 274.309,-118.532"/>
</g>
</g>
</svg>
