<?xml version="1.0" encoding="UTF-8" standalone="no"?>
<!DOCTYPE svg PUBLIC "-//W3C//DTD SVG 1.1//EN"
 "http://www.w3.org/Graphics/SVG/1.1/DTD/svg11.dtd">
<!-- Generated by graphviz version 2.38.0 (20140413.2041)
 -->
<!-- Title: G Pages: 1 -->
<svg width="872pt" height="45pt"
 viewBox="0.00 0.00 872.00 45.00" xmlns="http://www.w3.org/2000/svg" xmlns:xlink="http://www.w3.org/1999/xlink">
<g id="graph0" class="graph" transform="scale(1 1) rotate(0) translate(4 41)">
<title>G</title>
<polygon fill="white" stroke="none" points="-4,4 -4,-41 868,-41 868,4 -4,4"/>
<!-- character1 -->
<g id="node1" class="node"><title>character1</title>
<polygon fill="none" stroke="black" points="0,-0.5 0,-36.5 54,-36.5 54,-0.5 0,-0.5"/>
<text text-anchor="middle" x="27" y="-14.8" font-family="Times New Roman,serif" font-size="14.00">1</text>
</g>
<!-- character2 -->
<g id="node2" class="node"><title>character2</title>
<polygon fill="none" stroke="black" points="90,-0.5 90,-36.5 144,-36.5 144,-0.5 90,-0.5"/>
<text text-anchor="middle" x="117" y="-14.8" font-family="Times New Roman,serif" font-size="14.00">2</text>
</g>
<!-- character1&#45;&gt;character2 -->
<g id="edge1" class="edge"><title>character1&#45;&gt;character2</title>
<path fill="none" stroke="black" d="M54.4029,-18.5C62.3932,-18.5 71.3106,-18.5 79.8241,-18.5"/>
<polygon fill="black" stroke="black" points="79.919,-22.0001 89.919,-18.5 79.919,-15.0001 79.919,-22.0001"/>
</g>
<!-- character3 -->
<g id="node3" class="node"><title>character3</title>
<polygon fill="none" stroke="black" points="180,-0.5 180,-36.5 234,-36.5 234,-0.5 180,-0.5"/>
<text text-anchor="middle" x="207" y="-14.8" font-family="Times New Roman,serif" font-size="14.00"> </text>
</g>
<!-- character2&#45;&gt;character3 -->
<g id="edge2" class="edge"><title>character2&#45;&gt;character3</title>
<path fill="none" stroke="black" d="M144.403,-18.5C152.393,-18.5 161.311,-18.5 169.824,-18.5"/>
<polygon fill="black" stroke="black" points="169.919,-22.0001 179.919,-18.5 169.919,-15.0001 169.919,-22.0001"/>
</g>
<!-- character4 -->
<g id="node4" class="node"><title>character4</title>
<polygon fill="none" stroke="black" points="270,-0.5 270,-36.5 324,-36.5 324,-0.5 270,-0.5"/>
<text text-anchor="middle" x="297" y="-14.8" font-family="Times New Roman,serif" font-size="14.00">*</text>
</g>
<!-- character3&#45;&gt;character4 -->
<g id="edge3" class="edge"><title>character3&#45;&gt;character4</title>
<path fill="none" stroke="black" d="M234.403,-18.5C242.393,-18.5 251.311,-18.5 259.824,-18.5"/>
<polygon fill="black" stroke="black" points="259.919,-22.0001 269.919,-18.5 259.919,-15.0001 259.919,-22.0001"/>
</g>
<!-- character5 -->
<g id="node5" class="node"><title>character5</title>
<polygon fill="none" stroke="black" points="360,-0.5 360,-36.5 414,-36.5 414,-0.5 360,-0.5"/>
<text text-anchor="middle" x="387" y="-14.8" font-family="Times New Roman,serif" font-size="14.00"> </text>
</g>
<!-- character4&#45;&gt;character5 -->
<g id="edge4" class="edge"><title>character4&#45;&gt;character5</title>
<path fill="none" stroke="black" d="M324.403,-18.5C332.393,-18.5 341.311,-18.5 349.824,-18.5"/>
<polygon fill="black" stroke="black" points="349.919,-22.0001 359.919,-18.5 349.919,-15.0001 349.919,-22.0001"/>
</g>
<!-- character6 -->
<g id="node6" class="node"><title>character6</title>
<polygon fill="none" stroke="black" points="450,-0.5 450,-36.5 504,-36.5 504,-0.5 450,-0.5"/>
<text text-anchor="middle" x="477" y="-14.8" font-family="Times New Roman,serif" font-size="14.00">i</text>
</g>
<!-- character5&#45;&gt;character6 -->
<g id="edge5" class="edge"><title>character5&#45;&gt;character6</title>
<path fill="none" stroke="black" d="M414.403,-18.5C422.393,-18.5 431.311,-18.5 439.824,-18.5"/>
<polygon fill="black" stroke="black" points="439.919,-22.0001 449.919,-18.5 439.919,-15.0001 439.919,-22.0001"/>
</g>
<!-- character7 -->
<g id="node7" class="node"><title>character7</title>
<polygon fill="none" stroke="black" points="540,-0.5 540,-36.5 594,-36.5 594,-0.5 540,-0.5"/>
<text text-anchor="middle" x="567" y="-14.8" font-family="Times New Roman,serif" font-size="14.00"> </text>
</g>
<!-- character6&#45;&gt;character7 -->
<g id="edge6" class="edge"><title>character6&#45;&gt;character7</title>
<path fill="none" stroke="black" d="M504.403,-18.5C512.393,-18.5 521.311,-18.5 529.824,-18.5"/>
<polygon fill="black" stroke="black" points="529.919,-22.0001 539.919,-18.5 529.919,-15.0001 529.919,-22.0001"/>
</g>
<!-- character8 -->
<g id="node8" class="node"><title>character8</title>
<polygon fill="none" stroke="black" points="630,-0.5 630,-36.5 684,-36.5 684,-0.5 630,-0.5"/>
<text text-anchor="middle" x="657" y="-14.8" font-family="Times New Roman,serif" font-size="14.00">+</text>
</g>
<!-- character7&#45;&gt;character8 -->
<g id="edge7" class="edge"><title>character7&#45;&gt;character8</title>
<path fill="none" stroke="black" d="M594.403,-18.5C602.393,-18.5 611.311,-18.5 619.824,-18.5"/>
<polygon fill="black" stroke="black" points="619.919,-22.0001 629.919,-18.5 619.919,-15.0001 619.919,-22.0001"/>
</g>
<!-- character9 -->
<g id="node9" class="node"><title>character9</title>
<polygon fill="none" stroke="black" points="720,-0.5 720,-36.5 774,-36.5 774,-0.5 720,-0.5"/>
<text text-anchor="middle" x="747" y="-14.8" font-family="Times New Roman,serif" font-size="14.00"> </text>
</g>
<!-- character8&#45;&gt;character9 -->
<g id="edge8" class="edge"><title>character8&#45;&gt;character9</title>
<path fill="none" stroke="black" d="M684.403,-18.5C692.393,-18.5 701.311,-18.5 709.824,-18.5"/>
<polygon fill="black" stroke="black" points="709.919,-22.0001 719.919,-18.5 709.919,-15.0001 709.919,-22.0001"/>
</g>
<!-- character10 -->
<g id="node10" class="node"><title>character10</title>
<polygon fill="none" stroke="black" points="810,-0.5 810,-36.5 864,-36.5 864,-0.5 810,-0.5"/>
<text text-anchor="middle" x="837" y="-14.8" font-family="Times New Roman,serif" font-size="14.00">5</text>
</g>
<!-- character9&#45;&gt;character10 -->
<g id="edge9" class="edge"><title>character9&#45;&gt;character10</title>
<path fill="none" stroke="black" d="M774.403,-18.5C782.393,-18.5 791.311,-18.5 799.824,-18.5"/>
<polygon fill="black" stroke="black" points="799.919,-22.0001 809.919,-18.5 799.919,-15.0001 799.919,-22.0001"/>
</g>
</g>
</svg>
