<?xml version="1.0" encoding="UTF-8" standalone="no"?>
<!DOCTYPE svg PUBLIC "-//W3C//DTD SVG 1.1//EN"
 "http://www.w3.org/Graphics/SVG/1.1/DTD/svg11.dtd">
<!-- Generated by graphviz version 2.38.0 (20140413.2041)
 -->
<!-- Title: G Pages: 1 -->
<svg width="206pt" height="304pt"
 viewBox="0.00 0.00 206.00 304.00" xmlns="http://www.w3.org/2000/svg" xmlns:xlink="http://www.w3.org/1999/xlink">
<g id="graph0" class="graph" transform="scale(1 1) rotate(0) translate(4 300)">
<title>G</title>
<polygon fill="white" stroke="none" points="-4,4 -4,-300 202,-300 202,4 -4,4"/>
<!-- op1 -->
<g id="node1" class="node"><title>op1</title>
<polygon fill="none" stroke="black" points="36,-83.5 36,-129.5 90,-129.5 90,-83.5 36,-83.5"/>
<text text-anchor="middle" x="63" y="-114.3" font-family="Times New Roman,serif" font-size="14.00">&#45;10</text>
<polyline fill="none" stroke="black" points="36,-106.5 90,-106.5 "/>
<text text-anchor="middle" x="63" y="-91.3" font-family="Times New Roman,serif" font-size="14.00">SUB</text>
</g>
<!-- a1 -->
<g id="node4" class="node"><title>a1</title>
<polygon fill="none" stroke="black" points="0,-0.5 0,-46.5 54,-46.5 54,-0.5 0,-0.5"/>
<text text-anchor="middle" x="27" y="-31.3" font-family="Times New Roman,serif" font-size="14.00">NUM</text>
<polyline fill="none" stroke="black" points="0,-23.5 54,-23.5 "/>
<text text-anchor="middle" x="27" y="-8.3" font-family="Times New Roman,serif" font-size="14.00">10</text>
</g>
<!-- op1&#45;&gt;a1 -->
<g id="edge1" class="edge"><title>op1&#45;&gt;a1</title>
<path fill="none" stroke="black" d="M53.1628,-83.3664C49.3928,-74.8838 45.0166,-65.0374 40.9347,-55.8532"/>
<polygon fill="black" stroke="black" points="44.0851,-54.3235 36.8253,-46.6068 37.6884,-57.1665 44.0851,-54.3235"/>
</g>
<!-- a2 -->
<g id="node5" class="node"><title>a2</title>
<polygon fill="none" stroke="black" points="72,-0.5 72,-46.5 126,-46.5 126,-0.5 72,-0.5"/>
<text text-anchor="middle" x="99" y="-31.3" font-family="Times New Roman,serif" font-size="14.00">NUM</text>
<polyline fill="none" stroke="black" points="72,-23.5 126,-23.5 "/>
<text text-anchor="middle" x="99" y="-8.3" font-family="Times New Roman,serif" font-size="14.00">20</text>
</g>
<!-- op1&#45;&gt;a2 -->
<g id="edge2" class="edge"><title>op1&#45;&gt;a2</title>
<path fill="none" stroke="black" d="M72.8372,-83.3664C76.6072,-74.8838 80.9834,-65.0374 85.0653,-55.8532"/>
<polygon fill="black" stroke="black" points="88.3116,-57.1665 89.1747,-46.6068 81.9149,-54.3235 88.3116,-57.1665"/>
</g>
<!-- op2 -->
<g id="node2" class="node"><title>op2</title>
<polygon fill="none" stroke="black" points="72,-166.5 72,-212.5 126,-212.5 126,-166.5 72,-166.5"/>
<text text-anchor="middle" x="99" y="-197.3" font-family="Times New Roman,serif" font-size="14.00">&#45;40</text>
<polyline fill="none" stroke="black" points="72,-189.5 126,-189.5 "/>
<text text-anchor="middle" x="99" y="-174.3" font-family="Times New Roman,serif" font-size="14.00">SUB</text>
</g>
<!-- op2&#45;&gt;op1 -->
<g id="edge4" class="edge"><title>op2&#45;&gt;op1</title>
<path fill="none" stroke="black" d="M89.1628,-166.366C85.3928,-157.884 81.0166,-148.037 76.9347,-138.853"/>
<polygon fill="black" stroke="black" points="80.0851,-137.323 72.8253,-129.607 73.6884,-140.166 80.0851,-137.323"/>
</g>
<!-- a3 -->
<g id="node6" class="node"><title>a3</title>
<polygon fill="none" stroke="black" points="108,-83.5 108,-129.5 162,-129.5 162,-83.5 108,-83.5"/>
<text text-anchor="middle" x="135" y="-114.3" font-family="Times New Roman,serif" font-size="14.00">NUM</text>
<polyline fill="none" stroke="black" points="108,-106.5 162,-106.5 "/>
<text text-anchor="middle" x="135" y="-91.3" font-family="Times New Roman,serif" font-size="14.00">30</text>
</g>
<!-- op2&#45;&gt;a3 -->
<g id="edge3" class="edge"><title>op2&#45;&gt;a3</title>
<path fill="none" stroke="black" d="M108.837,-166.366C112.607,-157.884 116.983,-148.037 121.065,-138.853"/>
<polygon fill="black" stroke="black" points="124.312,-140.166 125.175,-129.607 117.915,-137.323 124.312,-140.166"/>
</g>
<!-- op3 -->
<g id="node3" class="node"><title>op3</title>
<polygon fill="none" stroke="black" points="108,-249.5 108,-295.5 162,-295.5 162,-249.5 108,-249.5"/>
<text text-anchor="middle" x="135" y="-280.3" font-family="Times New Roman,serif" font-size="14.00">&#45;80</text>
<polyline fill="none" stroke="black" points="108,-272.5 162,-272.5 "/>
<text text-anchor="middle" x="135" y="-257.3" font-family="Times New Roman,serif" font-size="14.00">SUB</text>
</g>
<!-- op3&#45;&gt;op2 -->
<g id="edge5" class="edge"><title>op3&#45;&gt;op2</title>
<path fill="none" stroke="black" d="M125.163,-249.366C121.393,-240.884 117.017,-231.037 112.935,-221.853"/>
<polygon fill="black" stroke="black" points="116.085,-220.323 108.825,-212.607 109.688,-223.166 116.085,-220.323"/>
</g>
<!-- a4 -->
<g id="node7" class="node"><title>a4</title>
<polygon fill="none" stroke="black" points="144,-166.5 144,-212.5 198,-212.5 198,-166.5 144,-166.5"/>
<text text-anchor="middle" x="171" y="-197.3" font-family="Times New Roman,serif" font-size="14.00">NUM</text>
<polyline fill="none" stroke="black" points="144,-189.5 198,-189.5 "/>
<text text-anchor="middle" x="171" y="-174.3" font-family="Times New Roman,serif" font-size="14.00">40</text>
</g>
<!-- op3&#45;&gt;a4 -->
<g id="edge6" class="edge"><title>op3&#45;&gt;a4</title>
<path fill="none" stroke="black" d="M144.837,-249.366C148.607,-240.884 152.983,-231.037 157.065,-221.853"/>
<polygon fill="black" stroke="black" points="160.312,-223.166 161.175,-212.607 153.915,-220.323 160.312,-223.166"/>
</g>
</g>
</svg>
