<?xml version="1.0" encoding="UTF-8" standalone="no"?>
<!DOCTYPE svg PUBLIC "-//W3C//DTD SVG 1.1//EN"
 "http://www.w3.org/Graphics/SVG/1.1/DTD/svg11.dtd">
<!-- Generated by graphviz version 2.38.0 (20140413.2041)
 -->
<!-- Title: G Pages: 1 -->
<svg width="574pt" height="382pt"
 viewBox="0.00 0.00 574.00 382.00" xmlns="http://www.w3.org/2000/svg" xmlns:xlink="http://www.w3.org/1999/xlink">
<g id="graph0" class="graph" transform="scale(1 1) rotate(0) translate(4 378)">
<title>G</title>
<polygon fill="white" stroke="none" points="-4,4 -4,-378 570,-378 570,4 -4,4"/>
<!-- input -->
<g id="node1" class="node"><title>input</title>
<polygon fill="none" stroke="black" points="0,-327.5 0,-373.5 237,-373.5 237,-327.5 0,-327.5"/>
<text text-anchor="middle" x="24" y="-358.3" font-family="Times New Roman,serif" font-size="14.00">NUM</text>
<polyline fill="none" stroke="black" points="0,-350.5 48,-350.5 "/>
<text text-anchor="middle" x="24" y="-335.3" font-family="Times New Roman,serif" font-size="14.00">3</text>
<polyline fill="none" stroke="black" points="48,-327.5 48,-373.5 "/>
<text text-anchor="middle" x="71.5" y="-358.3" font-family="Times New Roman,serif" font-size="14.00">MUL</text>
<polyline fill="none" stroke="black" points="48,-350.5 95,-350.5 "/>
<text text-anchor="middle" x="71.5" y="-335.3" font-family="Times New Roman,serif" font-size="14.00">*</text>
<polyline fill="none" stroke="black" points="95,-327.5 95,-373.5 "/>
<text text-anchor="middle" x="119" y="-358.3" font-family="Times New Roman,serif" font-size="14.00">NUM</text>
<polyline fill="none" stroke="black" points="95,-350.5 143,-350.5 "/>
<text text-anchor="middle" x="119" y="-335.3" font-family="Times New Roman,serif" font-size="14.00">4</text>
<polyline fill="none" stroke="black" points="143,-327.5 143,-373.5 "/>
<text text-anchor="middle" x="166" y="-358.3" font-family="Times New Roman,serif" font-size="14.00">ADD</text>
<polyline fill="none" stroke="black" points="143,-350.5 189,-350.5 "/>
<text text-anchor="middle" x="166" y="-335.3" font-family="Times New Roman,serif" font-size="14.00">+</text>
<polyline fill="none" stroke="black" points="189,-327.5 189,-373.5 "/>
<text text-anchor="middle" x="213" y="-358.3" font-family="Times New Roman,serif" font-size="14.00">NUM</text>
<polyline fill="none" stroke="black" points="189,-350.5 237,-350.5 "/>
<text text-anchor="middle" x="213" y="-335.3" font-family="Times New Roman,serif" font-size="14.00">5</text>
</g>
<!-- a -->
<g id="node4" class="node"><title>a</title>
<polygon fill="none" stroke="black" points="35,-180.5 35,-216.5 108,-216.5 108,-180.5 35,-180.5"/>
<text text-anchor="middle" x="71.5" y="-194.8" font-family="Times New Roman,serif" font-size="14.00">LL&#45;Parser</text>
</g>
<!-- input&#45;&gt;a -->
<g id="edge2" class="edge"><title>input:f0&#45;&gt;a</title>
<path fill="none" stroke="black" d="M71.5,-327C71.5,-292.524 71.5,-252.804 71.5,-226.983"/>
<polygon fill="black" stroke="black" points="75.0001,-226.823 71.5,-216.823 68.0001,-226.823 75.0001,-226.823"/>
<text text-anchor="middle" x="94" y="-297.8" font-family="Times New Roman,serif" font-size="14.00">Eingabe</text>
</g>
<!-- stack -->
<g id="node2" class="node"><title>stack</title>
<polygon fill="none" stroke="black" points="44.5,-0.5 44.5,-69.5 98.5,-69.5 98.5,-0.5 44.5,-0.5"/>
<text text-anchor="middle" x="71.5" y="-54.3" font-family="Times New Roman,serif" font-size="14.00"> </text>
<polyline fill="none" stroke="black" points="44.5,-46.5 98.5,-46.5 "/>
<text text-anchor="middle" x="71.5" y="-31.3" font-family="Times New Roman,serif" font-size="14.00">S</text>
<polyline fill="none" stroke="black" points="44.5,-23.5 98.5,-23.5 "/>
<text text-anchor="middle" x="71.5" y="-8.3" font-family="Times New Roman,serif" font-size="14.00">EOS</text>
</g>
<!-- table -->
<g id="node3" class="node"><title>table</title>
<polygon fill="none" stroke="black" points="215.5,-250.5 215.5,-271.5 234.5,-271.5 234.5,-250.5 215.5,-250.5"/>
<polygon fill="none" stroke="black" points="234.5,-250.5 234.5,-271.5 302.5,-271.5 302.5,-250.5 234.5,-250.5"/>
<text text-anchor="start" x="252.5" y="-257.3" font-family="Times New Roman,serif" font-size="14.00">NUM</text>
<polygon fill="none" stroke="black" points="302.5,-250.5 302.5,-271.5 377.5,-271.5 377.5,-250.5 302.5,-250.5"/>
<text text-anchor="start" x="335.5" y="-257.3" font-family="Times New Roman,serif" font-size="14.00">+</text>
<polygon fill="none" stroke="black" points="377.5,-250.5 377.5,-271.5 451.5,-271.5 451.5,-250.5 377.5,-250.5"/>
<text text-anchor="start" x="411" y="-257.3" font-family="Times New Roman,serif" font-size="14.00">*</text>
<polygon fill="none" stroke="black" points="451.5,-250.5 451.5,-271.5 512.5,-271.5 512.5,-250.5 451.5,-250.5"/>
<text text-anchor="start" x="479.5" y="-257.3" font-family="Times New Roman,serif" font-size="14.00">(</text>
<polygon fill="none" stroke="black" points="512.5,-250.5 512.5,-271.5 558.5,-271.5 558.5,-250.5 512.5,-250.5"/>
<text text-anchor="start" x="532" y="-257.3" font-family="Times New Roman,serif" font-size="14.00">$</text>
<polygon fill="none" stroke="black" points="215.5,-229.5 215.5,-250.5 234.5,-250.5 234.5,-229.5 215.5,-229.5"/>
<text text-anchor="start" x="220.5" y="-236.3" font-family="Times New Roman,serif" font-size="14.00">S</text>
<polygon fill="none" stroke="black" points="234.5,-229.5 234.5,-250.5 302.5,-250.5 302.5,-229.5 234.5,-229.5"/>
<text text-anchor="start" x="244" y="-236.3" font-family="Times New Roman,serif" font-size="14.00">S → E $</text>
<polygon fill="none" stroke="black" points="302.5,-229.5 302.5,-250.5 377.5,-250.5 377.5,-229.5 302.5,-229.5"/>
<polygon fill="none" stroke="black" points="377.5,-229.5 377.5,-250.5 451.5,-250.5 451.5,-229.5 377.5,-229.5"/>
<polygon fill="none" stroke="black" points="451.5,-229.5 451.5,-250.5 512.5,-250.5 512.5,-229.5 451.5,-229.5"/>
<text text-anchor="start" x="457.5" y="-236.3" font-family="Times New Roman,serif" font-size="14.00">S → E $</text>
<polygon fill="none" stroke="black" points="512.5,-229.5 512.5,-250.5 558.5,-250.5 558.5,-229.5 512.5,-229.5"/>
<polygon fill="none" stroke="black" points="215.5,-208.5 215.5,-229.5 234.5,-229.5 234.5,-208.5 215.5,-208.5"/>
<text text-anchor="start" x="220.5" y="-215.3" font-family="Times New Roman,serif" font-size="14.00">E</text>
<polygon fill="none" stroke="black" points="234.5,-208.5 234.5,-229.5 302.5,-229.5 302.5,-208.5 234.5,-208.5"/>
<text text-anchor="start" x="241.5" y="-215.3" font-family="Times New Roman,serif" font-size="14.00">E → T E&#39;</text>
<polygon fill="none" stroke="black" points="302.5,-208.5 302.5,-229.5 377.5,-229.5 377.5,-208.5 302.5,-208.5"/>
<polygon fill="none" stroke="black" points="377.5,-208.5 377.5,-229.5 451.5,-229.5 451.5,-208.5 377.5,-208.5"/>
<polygon fill="none" stroke="black" points="451.5,-208.5 451.5,-229.5 512.5,-229.5 512.5,-208.5 451.5,-208.5"/>
<text text-anchor="start" x="455" y="-215.3" font-family="Times New Roman,serif" font-size="14.00">E → T E&#39;</text>
<polygon fill="none" stroke="black" points="512.5,-208.5 512.5,-229.5 558.5,-229.5 558.5,-208.5 512.5,-208.5"/>
<polygon fill="none" stroke="black" points="215.5,-187.5 215.5,-208.5 234.5,-208.5 234.5,-187.5 215.5,-187.5"/>
<text text-anchor="start" x="219" y="-194.3" font-family="Times New Roman,serif" font-size="14.00">E&#39;</text>
<polygon fill="none" stroke="black" points="234.5,-187.5 234.5,-208.5 302.5,-208.5 302.5,-187.5 234.5,-187.5"/>
<polygon fill="none" stroke="black" points="302.5,-187.5 302.5,-208.5 377.5,-208.5 377.5,-187.5 302.5,-187.5"/>
<text text-anchor="start" x="305.5" y="-194.3" font-family="Times New Roman,serif" font-size="14.00">E&#39; → + T E&#39;</text>
<polygon fill="none" stroke="black" points="377.5,-187.5 377.5,-208.5 451.5,-208.5 451.5,-187.5 377.5,-187.5"/>
<polygon fill="none" stroke="black" points="451.5,-187.5 451.5,-208.5 512.5,-208.5 512.5,-187.5 451.5,-187.5"/>
<polygon fill="none" stroke="black" points="512.5,-187.5 512.5,-208.5 558.5,-208.5 558.5,-187.5 512.5,-187.5"/>
<text text-anchor="start" x="516" y="-194.3" font-family="Times New Roman,serif" font-size="14.00">E&#39; → ε</text>
<polygon fill="none" stroke="black" points="215.5,-166.5 215.5,-187.5 234.5,-187.5 234.5,-166.5 215.5,-166.5"/>
<text text-anchor="start" x="220" y="-173.3" font-family="Times New Roman,serif" font-size="14.00">T</text>
<polygon fill="none" stroke="black" points="234.5,-166.5 234.5,-187.5 302.5,-187.5 302.5,-166.5 234.5,-166.5"/>
<text text-anchor="start" x="241" y="-173.3" font-family="Times New Roman,serif" font-size="14.00">T → F T&#39;</text>
<polygon fill="none" stroke="black" points="302.5,-166.5 302.5,-187.5 377.5,-187.5 377.5,-166.5 302.5,-166.5"/>
<polygon fill="none" stroke="black" points="377.5,-166.5 377.5,-187.5 451.5,-187.5 451.5,-166.5 377.5,-166.5"/>
<polygon fill="none" stroke="black" points="451.5,-166.5 451.5,-187.5 512.5,-187.5 512.5,-166.5 451.5,-166.5"/>
<text text-anchor="start" x="454.5" y="-173.3" font-family="Times New Roman,serif" font-size="14.00">T → F T&#39;</text>
<polygon fill="none" stroke="black" points="512.5,-166.5 512.5,-187.5 558.5,-187.5 558.5,-166.5 512.5,-166.5"/>
<polygon fill="none" stroke="black" points="215.5,-145.5 215.5,-166.5 234.5,-166.5 234.5,-145.5 215.5,-145.5"/>
<text text-anchor="start" x="218.5" y="-152.3" font-family="Times New Roman,serif" font-size="14.00">T&#39;</text>
<polygon fill="none" stroke="black" points="234.5,-145.5 234.5,-166.5 302.5,-166.5 302.5,-145.5 234.5,-145.5"/>
<polygon fill="none" stroke="black" points="302.5,-145.5 302.5,-166.5 377.5,-166.5 377.5,-145.5 302.5,-145.5"/>
<polygon fill="none" stroke="black" points="377.5,-145.5 377.5,-166.5 451.5,-166.5 451.5,-145.5 377.5,-145.5"/>
<text text-anchor="start" x="380.5" y="-152.3" font-family="Times New Roman,serif" font-size="14.00">T&#39; → * F T&#39;</text>
<polygon fill="none" stroke="black" points="451.5,-145.5 451.5,-166.5 512.5,-166.5 512.5,-145.5 451.5,-145.5"/>
<polygon fill="none" stroke="black" points="512.5,-145.5 512.5,-166.5 558.5,-166.5 558.5,-145.5 512.5,-145.5"/>
<text text-anchor="start" x="515.5" y="-152.3" font-family="Times New Roman,serif" font-size="14.00">T&#39; → ε</text>
<polygon fill="none" stroke="black" points="215.5,-124.5 215.5,-145.5 234.5,-145.5 234.5,-124.5 215.5,-124.5"/>
<text text-anchor="start" x="220.5" y="-131.3" font-family="Times New Roman,serif" font-size="14.00">F</text>
<polygon fill="none" stroke="black" points="234.5,-124.5 234.5,-145.5 302.5,-145.5 302.5,-124.5 234.5,-124.5"/>
<text text-anchor="start" x="237.5" y="-131.3" font-family="Times New Roman,serif" font-size="14.00">F → NUM</text>
<polygon fill="none" stroke="black" points="302.5,-124.5 302.5,-145.5 377.5,-145.5 377.5,-124.5 302.5,-124.5"/>
<polygon fill="none" stroke="black" points="377.5,-124.5 377.5,-145.5 451.5,-145.5 451.5,-124.5 377.5,-124.5"/>
<polygon fill="none" stroke="black" points="451.5,-124.5 451.5,-145.5 512.5,-145.5 512.5,-124.5 451.5,-124.5"/>
<text text-anchor="start" x="454.5" y="-131.3" font-family="Times New Roman,serif" font-size="14.00">F → ( E )</text>
<polygon fill="none" stroke="black" points="512.5,-124.5 512.5,-145.5 558.5,-145.5 558.5,-124.5 512.5,-124.5"/>
</g>
<!-- a&#45;&gt;stack -->
<g id="edge1" class="edge"><title>a&#45;&gt;stack:f0</title>
<path fill="none" stroke="black" d="M71.5,-180.177C71.5,-157.759 71.5,-117.19 71.5,-80.2917"/>
<polygon fill="black" stroke="black" points="75.0001,-80 71.5,-70 68.0001,-80 75.0001,-80"/>
<text text-anchor="middle" x="87.5" y="-91.8" font-family="Times New Roman,serif" font-size="14.00">Stack</text>
</g>
<!-- a&#45;&gt;table -->
<g id="edge3" class="edge"><title>a&#45;&gt;table:f0</title>
<path fill="none" stroke="black" d="M108.122,-215.22C133.803,-225.88 169.872,-238.077 204.348,-240.183"/>
<polygon fill="black" stroke="black" points="204.395,-243.686 214.5,-240.5 204.614,-236.689 204.395,-243.686"/>
<text text-anchor="middle" x="157.5" y="-242.3" font-family="Times New Roman,serif" font-size="14.00">Parser&#45;Tabelle</text>
</g>
</g>
</svg>
