<?xml version="1.0" encoding="UTF-8" standalone="no"?>
<!DOCTYPE svg PUBLIC "-//W3C//DTD SVG 1.1//EN"
 "http://www.w3.org/Graphics/SVG/1.1/DTD/svg11.dtd">
<!-- Generated by graphviz version 2.38.0 (20140413.2041)
 -->
<!-- Title: G Pages: 1 -->
<svg width="164pt" height="221pt"
 viewBox="0.00 0.00 164.00 221.00" xmlns="http://www.w3.org/2000/svg" xmlns:xlink="http://www.w3.org/1999/xlink">
<g id="graph0" class="graph" transform="scale(1 1) rotate(0) translate(4 217)">
<title>G</title>
<polygon fill="white" stroke="none" points="-4,4 -4,-217 160,-217 160,4 -4,4"/>
<!-- stmt1 -->
<g id="node1" class="node"><title>stmt1</title>
<polygon fill="none" stroke="black" points="44,-176.5 44,-212.5 111,-212.5 111,-176.5 44,-176.5"/>
<text text-anchor="middle" x="65.5" y="-190.8" font-family="Times New Roman,serif" font-size="14.00">Stmt</text>
<polyline fill="none" stroke="black" points="87,-176.5 87,-212.5 "/>
<text text-anchor="middle" x="99" y="-190.8" font-family="Times New Roman,serif" font-size="14.00">if</text>
</g>
<!-- stmt2 -->
<g id="node2" class="node"><title>stmt2</title>
<polygon fill="none" stroke="black" points="44,-88.5 44,-124.5 111,-124.5 111,-88.5 44,-88.5"/>
<text text-anchor="middle" x="65.5" y="-102.8" font-family="Times New Roman,serif" font-size="14.00">Stmt</text>
<polyline fill="none" stroke="black" points="87,-88.5 87,-124.5 "/>
<text text-anchor="middle" x="99" y="-102.8" font-family="Times New Roman,serif" font-size="14.00">if</text>
</g>
<!-- stmt1&#45;&gt;stmt2 -->
<g id="edge1" class="edge"><title>stmt1&#45;&gt;stmt2</title>
<path fill="none" stroke="black" d="M77.5,-176.097C77.5,-164.246 77.5,-148.317 77.5,-134.792"/>
<polygon fill="black" stroke="black" points="81.0001,-134.584 77.5,-124.584 74.0001,-134.584 81.0001,-134.584"/>
<text text-anchor="middle" x="89.5" y="-146.8" font-family="Times New Roman,serif" font-size="14.00">then</text>
</g>
<!-- stmtA -->
<g id="node3" class="node"><title>stmtA</title>
<polygon fill="none" stroke="black" points="0,-0.5 0,-36.5 69,-36.5 69,-0.5 0,-0.5"/>
<text text-anchor="middle" x="21.5" y="-14.8" font-family="Times New Roman,serif" font-size="14.00">Stmt</text>
<polyline fill="none" stroke="black" points="43,-0.5 43,-36.5 "/>
<text text-anchor="middle" x="56" y="-14.8" font-family="Times New Roman,serif" font-size="14.00">A</text>
</g>
<!-- stmt2&#45;&gt;stmtA -->
<g id="edge2" class="edge"><title>stmt2&#45;&gt;stmtA</title>
<path fill="none" stroke="black" d="M68.7983,-88.0966C62.6969,-75.8939 54.4335,-59.367 47.5465,-45.593"/>
<polygon fill="black" stroke="black" points="50.6447,-43.963 43.042,-36.584 44.3837,-47.0936 50.6447,-43.963"/>
<text text-anchor="middle" x="71.5" y="-58.8" font-family="Times New Roman,serif" font-size="14.00">then</text>
</g>
<!-- stmtB -->
<g id="node4" class="node"><title>stmtB</title>
<polygon fill="none" stroke="black" points="87,-0.5 87,-36.5 156,-36.5 156,-0.5 87,-0.5"/>
<text text-anchor="middle" x="108.5" y="-14.8" font-family="Times New Roman,serif" font-size="14.00">Stmt</text>
<polyline fill="none" stroke="black" points="130,-0.5 130,-36.5 "/>
<text text-anchor="middle" x="143" y="-14.8" font-family="Times New Roman,serif" font-size="14.00">B</text>
</g>
<!-- stmt2&#45;&gt;stmtB -->
<g id="edge3" class="edge"><title>stmt2&#45;&gt;stmtB</title>
<path fill="none" stroke="black" d="M86.4041,-88.0966C92.6473,-75.8939 101.103,-59.367 108.15,-45.593"/>
<polygon fill="black" stroke="black" points="111.32,-47.0807 112.759,-36.584 105.089,-43.8923 111.32,-47.0807"/>
<text text-anchor="middle" x="112.5" y="-58.8" font-family="Times New Roman,serif" font-size="14.00">else</text>
</g>
</g>
</svg>
