<?xml version="1.0" encoding="UTF-8" standalone="no"?>
<!DOCTYPE svg PUBLIC "-//W3C//DTD SVG 1.1//EN"
 "http://www.w3.org/Graphics/SVG/1.1/DTD/svg11.dtd">
<!-- Generated by graphviz version 2.38.0 (20140413.2041)
 -->
<!-- Title: G Pages: 1 -->
<svg width="163pt" height="221pt"
 viewBox="0.00 0.00 163.00 221.00" xmlns="http://www.w3.org/2000/svg" xmlns:xlink="http://www.w3.org/1999/xlink">
<g id="graph0" class="graph" transform="scale(1 1) rotate(0) translate(4 217)">
<title>G</title>
<polygon fill="white" stroke="none" points="-4,4 -4,-217 159,-217 159,4 -4,4"/>
<!-- stmt3 -->
<g id="node1" class="node"><title>stmt3</title>
<polygon fill="none" stroke="black" points="63,-176.5 63,-212.5 130,-212.5 130,-176.5 63,-176.5"/>
<text text-anchor="middle" x="84.5" y="-190.8" font-family="Times New Roman,serif" font-size="14.00">Stmt</text>
<polyline fill="none" stroke="black" points="106,-176.5 106,-212.5 "/>
<text text-anchor="middle" x="118" y="-190.8" font-family="Times New Roman,serif" font-size="14.00">if</text>
</g>
<!-- stmt4 -->
<g id="node2" class="node"><title>stmt4</title>
<polygon fill="none" stroke="black" points="1,-88.5 1,-124.5 68,-124.5 68,-88.5 1,-88.5"/>
<text text-anchor="middle" x="22.5" y="-102.8" font-family="Times New Roman,serif" font-size="14.00">Stmt</text>
<polyline fill="none" stroke="black" points="44,-88.5 44,-124.5 "/>
<text text-anchor="middle" x="56" y="-102.8" font-family="Times New Roman,serif" font-size="14.00">if</text>
</g>
<!-- stmt3&#45;&gt;stmt4 -->
<g id="edge1" class="edge"><title>stmt3&#45;&gt;stmt4</title>
<path fill="none" stroke="black" d="M83.9534,-176.097C74.9869,-163.659 62.7819,-146.73 52.7406,-132.802"/>
<polygon fill="black" stroke="black" points="55.5036,-130.649 46.8164,-124.584 49.8253,-134.743 55.5036,-130.649"/>
<text text-anchor="middle" x="81.5" y="-146.8" font-family="Times New Roman,serif" font-size="14.00">then</text>
</g>
<!-- stmtB2 -->
<g id="node4" class="node"><title>stmtB2</title>
<polygon fill="none" stroke="black" points="86,-88.5 86,-124.5 155,-124.5 155,-88.5 86,-88.5"/>
<text text-anchor="middle" x="107.5" y="-102.8" font-family="Times New Roman,serif" font-size="14.00">Stmt</text>
<polyline fill="none" stroke="black" points="129,-88.5 129,-124.5 "/>
<text text-anchor="middle" x="142" y="-102.8" font-family="Times New Roman,serif" font-size="14.00">B</text>
</g>
<!-- stmt3&#45;&gt;stmtB2 -->
<g id="edge3" class="edge"><title>stmt3&#45;&gt;stmtB2</title>
<path fill="none" stroke="black" d="M101.357,-176.097C104.697,-164.129 109.197,-148.001 112.996,-134.391"/>
<polygon fill="black" stroke="black" points="116.415,-135.157 115.732,-124.584 109.673,-133.275 116.415,-135.157"/>
<text text-anchor="middle" x="120.5" y="-146.8" font-family="Times New Roman,serif" font-size="14.00">else</text>
</g>
<!-- stmtA2 -->
<g id="node3" class="node"><title>stmtA2</title>
<polygon fill="none" stroke="black" points="0,-0.5 0,-36.5 69,-36.5 69,-0.5 0,-0.5"/>
<text text-anchor="middle" x="21.5" y="-14.8" font-family="Times New Roman,serif" font-size="14.00">Stmt</text>
<polyline fill="none" stroke="black" points="43,-0.5 43,-36.5 "/>
<text text-anchor="middle" x="56" y="-14.8" font-family="Times New Roman,serif" font-size="14.00">A</text>
</g>
<!-- stmt4&#45;&gt;stmtA2 -->
<g id="edge2" class="edge"><title>stmt4&#45;&gt;stmtA2</title>
<path fill="none" stroke="black" d="M34.5,-88.0966C34.5,-76.2459 34.5,-60.3169 34.5,-46.7917"/>
<polygon fill="black" stroke="black" points="38.0001,-46.584 34.5,-36.584 31.0001,-46.584 38.0001,-46.584"/>
<text text-anchor="middle" x="46.5" y="-58.8" font-family="Times New Roman,serif" font-size="14.00">then</text>
</g>
</g>
</svg>
