<?xml version="1.0" encoding="UTF-8" standalone="no"?>
<!DOCTYPE svg PUBLIC "-//W3C//DTD SVG 1.1//EN"
 "http://www.w3.org/Graphics/SVG/1.1/DTD/svg11.dtd">
<!-- Generated by graphviz version 2.38.0 (20140413.2041)
 -->
<!-- Title: G Pages: 1 -->
<svg width="314pt" height="188pt"
 viewBox="0.00 0.00 314.00 188.00" xmlns="http://www.w3.org/2000/svg" xmlns:xlink="http://www.w3.org/1999/xlink">
<g id="graph0" class="graph" transform="scale(1 1) rotate(0) translate(4 184)">
<title>G</title>
<polygon fill="white" stroke="none" points="-4,4 -4,-184 310,-184 310,4 -4,4"/>
<!-- a1 -->
<g id="node1" class="node"><title>a1</title>
<polygon fill="none" stroke="black" points="54,-108 0,-108 0,-72 54,-72 54,-108"/>
<text text-anchor="middle" x="27" y="-86.3" font-family="Times New Roman,serif" font-size="14.00">1</text>
</g>
<!-- a2 -->
<g id="node2" class="node"><title>a2</title>
<polygon fill="none" stroke="black" points="90,-36 36,-36 36,-0 90,-0 90,-36"/>
<text text-anchor="middle" x="63" y="-14.3" font-family="Times New Roman,serif" font-size="14.00">2</text>
</g>
<!-- a3 -->
<g id="node3" class="node"><title>a3</title>
<polygon fill="none" stroke="black" points="162,-36 108,-36 108,-0 162,-0 162,-36"/>
<text text-anchor="middle" x="135" y="-14.3" font-family="Times New Roman,serif" font-size="14.00">3</text>
</g>
<!-- o1 -->
<g id="node4" class="node"><title>o1</title>
<polygon fill="none" stroke="black" points="90,-180 36,-180 36,-144 90,-144 90,-180"/>
<text text-anchor="middle" x="63" y="-158.3" font-family="Times New Roman,serif" font-size="14.00">*</text>
</g>
<!-- o1&#45;&gt;a1 -->
<g id="edge1" class="edge"><title>o1&#45;&gt;a1</title>
<path fill="none" stroke="black" d="M54.1011,-143.697C50.0032,-135.728 45.0512,-126.1 40.5073,-117.264"/>
<polygon fill="black" stroke="black" points="43.4826,-115.396 35.7965,-108.104 37.2575,-118.598 43.4826,-115.396"/>
</g>
<!-- o2 -->
<g id="node5" class="node"><title>o2</title>
<polygon fill="none" stroke="black" points="126,-108 72,-108 72,-72 126,-72 126,-108"/>
<text text-anchor="middle" x="99" y="-86.3" font-family="Times New Roman,serif" font-size="14.00">+</text>
</g>
<!-- o1&#45;&gt;o2 -->
<g id="edge2" class="edge"><title>o1&#45;&gt;o2</title>
<path fill="none" stroke="black" d="M71.8989,-143.697C75.9968,-135.728 80.9488,-126.1 85.4927,-117.264"/>
<polygon fill="black" stroke="black" points="88.7425,-118.598 90.2035,-108.104 82.5174,-115.396 88.7425,-118.598"/>
</g>
<!-- o2&#45;&gt;a2 -->
<g id="edge3" class="edge"><title>o2&#45;&gt;a2</title>
<path fill="none" stroke="black" d="M90.1011,-71.6966C86.0032,-63.7284 81.0512,-54.0995 76.5073,-45.2641"/>
<polygon fill="black" stroke="black" points="79.4826,-43.3965 71.7965,-36.1043 73.2575,-46.598 79.4826,-43.3965"/>
</g>
<!-- o2&#45;&gt;a3 -->
<g id="edge4" class="edge"><title>o2&#45;&gt;a3</title>
<path fill="none" stroke="black" d="M107.899,-71.6966C111.997,-63.7284 116.949,-54.0995 121.493,-45.2641"/>
<polygon fill="black" stroke="black" points="124.742,-46.598 126.203,-36.1043 118.517,-43.3965 124.742,-46.598"/>
</g>
<!-- p1 -->
<g id="node6" class="node"><title>p1</title>
<polygon fill="none" stroke="black" points="234,-36 180,-36 180,-0 234,-0 234,-36"/>
<text text-anchor="middle" x="207" y="-14.3" font-family="Times New Roman,serif" font-size="14.00">1</text>
</g>
<!-- p2 -->
<g id="node7" class="node"><title>p2</title>
<polygon fill="none" stroke="black" points="306,-36 252,-36 252,-0 306,-0 306,-36"/>
<text text-anchor="middle" x="279" y="-14.3" font-family="Times New Roman,serif" font-size="14.00">2</text>
</g>
<!-- p3 -->
<g id="node8" class="node"><title>p3</title>
<polygon fill="none" stroke="black" points="234,-108 180,-108 180,-72 234,-72 234,-108"/>
<text text-anchor="middle" x="207" y="-86.3" font-family="Times New Roman,serif" font-size="14.00">3</text>
</g>
<!-- q1 -->
<g id="node9" class="node"><title>q1</title>
<polygon fill="none" stroke="black" points="306,-108 252,-108 252,-72 306,-72 306,-108"/>
<text text-anchor="middle" x="279" y="-86.3" font-family="Times New Roman,serif" font-size="14.00">*</text>
</g>
<!-- q1&#45;&gt;p1 -->
<g id="edge5" class="edge"><title>q1&#45;&gt;p1</title>
<path fill="none" stroke="black" d="M261.202,-71.6966C252.396,-63.135 241.618,-52.6562 231.999,-43.3045"/>
<polygon fill="black" stroke="black" points="234.203,-40.5657 224.593,-36.1043 229.323,-45.5846 234.203,-40.5657"/>
</g>
<!-- q1&#45;&gt;p2 -->
<g id="edge7" class="edge"><title>q1&#45;&gt;p2</title>
<path fill="none" stroke="black" d="M279,-71.6966C279,-63.9827 279,-54.7125 279,-46.1124"/>
<polygon fill="black" stroke="black" points="282.5,-46.1043 279,-36.1043 275.5,-46.1044 282.5,-46.1043"/>
</g>
<!-- q2 -->
<g id="node10" class="node"><title>q2</title>
<polygon fill="none" stroke="black" points="270,-180 216,-180 216,-144 270,-144 270,-180"/>
<text text-anchor="middle" x="243" y="-158.3" font-family="Times New Roman,serif" font-size="14.00">+</text>
</g>
<!-- q2&#45;&gt;p3 -->
<g id="edge8" class="edge"><title>q2&#45;&gt;p3</title>
<path fill="none" stroke="black" d="M234.101,-143.697C230.003,-135.728 225.051,-126.1 220.507,-117.264"/>
<polygon fill="black" stroke="black" points="223.483,-115.396 215.797,-108.104 217.258,-118.598 223.483,-115.396"/>
</g>
<!-- q2&#45;&gt;q1 -->
<g id="edge6" class="edge"><title>q2&#45;&gt;q1</title>
<path fill="none" stroke="black" d="M251.899,-143.697C255.997,-135.728 260.949,-126.1 265.493,-117.264"/>
<polygon fill="black" stroke="black" points="268.742,-118.598 270.203,-108.104 262.517,-115.396 268.742,-118.598"/>
</g>
</g>
</svg>
