<?xml version="1.0" encoding="UTF-8" standalone="no"?>
<!DOCTYPE svg PUBLIC "-//W3C//DTD SVG 1.1//EN"
 "http://www.w3.org/Graphics/SVG/1.1/DTD/svg11.dtd">
<!-- Generated by graphviz version 2.38.0 (20140413.2041)
 -->
<!-- Title: G Pages: 1 -->
<svg width="715pt" height="101pt"
 viewBox="0.00 0.00 715.00 101.00" xmlns="http://www.w3.org/2000/svg" xmlns:xlink="http://www.w3.org/1999/xlink">
<g id="graph0" class="graph" transform="scale(1 1) rotate(0) translate(4 97)">
<title>G</title>
<polygon fill="white" stroke="none" points="-4,4 -4,-97 711,-97 711,4 -4,4"/>
<g id="clust1" class="cluster"><title>cluster0</title>
<polygon fill="none" stroke="red" points="8,-8 8,-85 354,-85 354,-8 8,-8"/>
<text text-anchor="middle" x="181" y="-69.8" font-family="Times New Roman,serif" font-size="14.00">Rahmen dieses Crashkurses</text>
</g>
<!-- a3 -->
<g id="node1" class="node"><title>a3</title>
<polygon fill="none" stroke="black" points="346,-54 260,-54 260,-16 346,-16 346,-54"/>
<text text-anchor="middle" x="303" y="-38.8" font-family="Times New Roman,serif" font-size="14.00">Semantische</text>
<text text-anchor="middle" x="303" y="-23.8" font-family="Times New Roman,serif" font-size="14.00">Analyse</text>
</g>
<!-- Zwischencode&#45;\ngenerierung -->
<g id="node4" class="node"><title>Zwischencode&#45;\ngenerierung</title>
<polygon fill="none" stroke="black" points="484,-54 382,-54 382,-16 484,-16 484,-54"/>
<text text-anchor="middle" x="433" y="-38.8" font-family="Times New Roman,serif" font-size="14.00">Zwischencode&#45;</text>
<text text-anchor="middle" x="433" y="-23.8" font-family="Times New Roman,serif" font-size="14.00">generierung</text>
</g>
<!-- a3&#45;&gt;Zwischencode&#45;\ngenerierung -->
<g id="edge3" class="edge"><title>a3&#45;&gt;Zwischencode&#45;\ngenerierung</title>
<path fill="none" stroke="black" d="M346.267,-35C354.432,-35 363.132,-35 371.742,-35"/>
<polygon fill="black" stroke="black" points="371.77,-38.5001 381.77,-35 371.77,-31.5001 371.77,-38.5001"/>
</g>
<!-- Lexikalische\nAnalyse -->
<g id="node2" class="node"><title>Lexikalische\nAnalyse</title>
<polygon fill="none" stroke="black" points="101,-54 16,-54 16,-16 101,-16 101,-54"/>
<text text-anchor="middle" x="58.5" y="-38.8" font-family="Times New Roman,serif" font-size="14.00">Lexikalische</text>
<text text-anchor="middle" x="58.5" y="-23.8" font-family="Times New Roman,serif" font-size="14.00">Analyse</text>
</g>
<!-- Syntaktische\nAnalyse -->
<g id="node3" class="node"><title>Syntaktische\nAnalyse</title>
<polygon fill="none" stroke="black" points="224,-54 137,-54 137,-16 224,-16 224,-54"/>
<text text-anchor="middle" x="180.5" y="-38.8" font-family="Times New Roman,serif" font-size="14.00">Syntaktische</text>
<text text-anchor="middle" x="180.5" y="-23.8" font-family="Times New Roman,serif" font-size="14.00">Analyse</text>
</g>
<!-- Lexikalische\nAnalyse&#45;&gt;Syntaktische\nAnalyse -->
<g id="edge1" class="edge"><title>Lexikalische\nAnalyse&#45;&gt;Syntaktische\nAnalyse</title>
<path fill="none" stroke="black" d="M101.133,-35C109.315,-35 118,-35 126.496,-35"/>
<polygon fill="black" stroke="black" points="126.719,-38.5001 136.719,-35 126.718,-31.5001 126.719,-38.5001"/>
</g>
<!-- Syntaktische\nAnalyse&#45;&gt;a3 -->
<g id="edge2" class="edge"><title>Syntaktische\nAnalyse&#45;&gt;a3</title>
<path fill="none" stroke="black" d="M224.323,-35C232.499,-35 241.143,-35 249.579,-35"/>
<polygon fill="black" stroke="black" points="249.72,-38.5001 259.72,-35 249.72,-31.5001 249.72,-38.5001"/>
</g>
<!-- Optimierung -->
<g id="node5" class="node"><title>Optimierung</title>
<polygon fill="none" stroke="black" points="606,-53 520,-53 520,-17 606,-17 606,-53"/>
<text text-anchor="middle" x="563" y="-31.3" font-family="Times New Roman,serif" font-size="14.00">Optimierung</text>
</g>
<!-- Zwischencode&#45;\ngenerierung&#45;&gt;Optimierung -->
<g id="edge4" class="edge"><title>Zwischencode&#45;\ngenerierung&#45;&gt;Optimierung</title>
<path fill="none" stroke="black" d="M484.222,-35C492.587,-35 501.282,-35 509.697,-35"/>
<polygon fill="black" stroke="black" points="509.783,-38.5001 519.783,-35 509.783,-31.5001 509.783,-38.5001"/>
</g>
<!-- Ausgabe -->
<g id="node6" class="node"><title>Ausgabe</title>
<polygon fill="none" stroke="black" points="707,-53 642,-53 642,-17 707,-17 707,-53"/>
<text text-anchor="middle" x="674.5" y="-31.3" font-family="Times New Roman,serif" font-size="14.00">Ausgabe</text>
</g>
<!-- Optimierung&#45;&gt;Ausgabe -->
<g id="edge5" class="edge"><title>Optimierung&#45;&gt;Ausgabe</title>
<path fill="none" stroke="black" d="M606.022,-35C614.512,-35 623.434,-35 631.909,-35"/>
<polygon fill="black" stroke="black" points="631.966,-38.5001 641.966,-35 631.966,-31.5001 631.966,-38.5001"/>
</g>
</g>
</svg>
