<?xml version="1.0" encoding="UTF-8" standalone="no"?>
<!DOCTYPE svg PUBLIC "-//W3C//DTD SVG 1.1//EN"
 "http://www.w3.org/Graphics/SVG/1.1/DTD/svg11.dtd">
<!-- Generated by graphviz version 2.38.0 (20140413.2041)
 -->
<!-- Title: G Pages: 1 -->
<svg width="206pt" height="304pt"
 viewBox="0.00 0.00 206.00 304.00" xmlns="http://www.w3.org/2000/svg" xmlns:xlink="http://www.w3.org/1999/xlink">
<g id="graph0" class="graph" transform="scale(1 1) rotate(0) translate(4 300)">
<title>G</title>
<polygon fill="white" stroke="none" points="-4,4 -4,-300 202,-300 202,4 -4,4"/>
<!-- a1 -->
<g id="node1" class="node"><title>a1</title>
<polygon fill="none" stroke="black" points="0,-166.5 0,-212.5 54,-212.5 54,-166.5 0,-166.5"/>
<text text-anchor="middle" x="27" y="-197.3" font-family="Times New Roman,serif" font-size="14.00">NUM</text>
<polyline fill="none" stroke="black" points="0,-189.5 54,-189.5 "/>
<text text-anchor="middle" x="27" y="-174.3" font-family="Times New Roman,serif" font-size="14.00">10</text>
</g>
<!-- a2 -->
<g id="node2" class="node"><title>a2</title>
<polygon fill="none" stroke="black" points="36,-83.5 36,-129.5 90,-129.5 90,-83.5 36,-83.5"/>
<text text-anchor="middle" x="63" y="-114.3" font-family="Times New Roman,serif" font-size="14.00">NUM</text>
<polyline fill="none" stroke="black" points="36,-106.5 90,-106.5 "/>
<text text-anchor="middle" x="63" y="-91.3" font-family="Times New Roman,serif" font-size="14.00">20</text>
</g>
<!-- a3 -->
<g id="node3" class="node"><title>a3</title>
<polygon fill="none" stroke="black" points="72,-0.5 72,-46.5 126,-46.5 126,-0.5 72,-0.5"/>
<text text-anchor="middle" x="99" y="-31.3" font-family="Times New Roman,serif" font-size="14.00">NUM</text>
<polyline fill="none" stroke="black" points="72,-23.5 126,-23.5 "/>
<text text-anchor="middle" x="99" y="-8.3" font-family="Times New Roman,serif" font-size="14.00">30</text>
</g>
<!-- a4 -->
<g id="node4" class="node"><title>a4</title>
<polygon fill="none" stroke="black" points="144,-0.5 144,-46.5 198,-46.5 198,-0.5 144,-0.5"/>
<text text-anchor="middle" x="171" y="-31.3" font-family="Times New Roman,serif" font-size="14.00">NUM</text>
<polyline fill="none" stroke="black" points="144,-23.5 198,-23.5 "/>
<text text-anchor="middle" x="171" y="-8.3" font-family="Times New Roman,serif" font-size="14.00">40</text>
</g>
<!-- op1 -->
<g id="node5" class="node"><title>op1</title>
<polygon fill="none" stroke="black" points="36,-249.5 36,-295.5 90,-295.5 90,-249.5 36,-249.5"/>
<text text-anchor="middle" x="63" y="-280.3" font-family="Times New Roman,serif" font-size="14.00">&#45;20</text>
<polyline fill="none" stroke="black" points="36,-272.5 90,-272.5 "/>
<text text-anchor="middle" x="63" y="-257.3" font-family="Times New Roman,serif" font-size="14.00">SUB</text>
</g>
<!-- op1&#45;&gt;a1 -->
<g id="edge1" class="edge"><title>op1&#45;&gt;a1</title>
<path fill="none" stroke="black" d="M53.1628,-249.366C49.3928,-240.884 45.0166,-231.037 40.9347,-221.853"/>
<polygon fill="black" stroke="black" points="44.0851,-220.323 36.8253,-212.607 37.6884,-223.166 44.0851,-220.323"/>
</g>
<!-- op2 -->
<g id="node6" class="node"><title>op2</title>
<polygon fill="none" stroke="black" points="72,-166.5 72,-212.5 126,-212.5 126,-166.5 72,-166.5"/>
<text text-anchor="middle" x="99" y="-197.3" font-family="Times New Roman,serif" font-size="14.00">30</text>
<polyline fill="none" stroke="black" points="72,-189.5 126,-189.5 "/>
<text text-anchor="middle" x="99" y="-174.3" font-family="Times New Roman,serif" font-size="14.00">SUB</text>
</g>
<!-- op1&#45;&gt;op2 -->
<g id="edge2" class="edge"><title>op1&#45;&gt;op2</title>
<path fill="none" stroke="black" d="M72.8372,-249.366C76.6072,-240.884 80.9834,-231.037 85.0653,-221.853"/>
<polygon fill="black" stroke="black" points="88.3116,-223.166 89.1747,-212.607 81.9149,-220.323 88.3116,-223.166"/>
</g>
<!-- op2&#45;&gt;a2 -->
<g id="edge3" class="edge"><title>op2&#45;&gt;a2</title>
<path fill="none" stroke="black" d="M89.1628,-166.366C85.3928,-157.884 81.0166,-148.037 76.9347,-138.853"/>
<polygon fill="black" stroke="black" points="80.0851,-137.323 72.8253,-129.607 73.6884,-140.166 80.0851,-137.323"/>
</g>
<!-- op3 -->
<g id="node7" class="node"><title>op3</title>
<polygon fill="none" stroke="black" points="108,-83.5 108,-129.5 162,-129.5 162,-83.5 108,-83.5"/>
<text text-anchor="middle" x="135" y="-114.3" font-family="Times New Roman,serif" font-size="14.00">&#45;10</text>
<polyline fill="none" stroke="black" points="108,-106.5 162,-106.5 "/>
<text text-anchor="middle" x="135" y="-91.3" font-family="Times New Roman,serif" font-size="14.00">SUB</text>
</g>
<!-- op2&#45;&gt;op3 -->
<g id="edge4" class="edge"><title>op2&#45;&gt;op3</title>
<path fill="none" stroke="black" d="M108.837,-166.366C112.607,-157.884 116.983,-148.037 121.065,-138.853"/>
<polygon fill="black" stroke="black" points="124.312,-140.166 125.175,-129.607 117.915,-137.323 124.312,-140.166"/>
</g>
<!-- op3&#45;&gt;a3 -->
<g id="edge5" class="edge"><title>op3&#45;&gt;a3</title>
<path fill="none" stroke="black" d="M125.163,-83.3664C121.393,-74.8838 117.017,-65.0374 112.935,-55.8532"/>
<polygon fill="black" stroke="black" points="116.085,-54.3235 108.825,-46.6068 109.688,-57.1665 116.085,-54.3235"/>
</g>
<!-- op3&#45;&gt;a4 -->
<g id="edge6" class="edge"><title>op3&#45;&gt;a4</title>
<path fill="none" stroke="black" d="M144.837,-83.3664C148.607,-74.8838 152.983,-65.0374 157.065,-55.8532"/>
<polygon fill="black" stroke="black" points="160.312,-57.1665 161.175,-46.6068 153.915,-54.3235 160.312,-57.1665"/>
</g>
</g>
</svg>
