<?xml version="1.0" encoding="UTF-8" standalone="no"?>
<!DOCTYPE svg PUBLIC "-//W3C//DTD SVG 1.1//EN"
 "http://www.w3.org/Graphics/SVG/1.1/DTD/svg11.dtd">
<!-- Generated by graphviz version 2.38.0 (20140413.2041)
 -->
<!-- Title: G Pages: 1 -->
<svg width="552pt" height="263pt"
 viewBox="0.00 0.00 551.50 263.00" xmlns="http://www.w3.org/2000/svg" xmlns:xlink="http://www.w3.org/1999/xlink">
<g id="graph0" class="graph" transform="scale(1 1) rotate(0) translate(4 259)">
<title>G</title>
<polygon fill="white" stroke="none" points="-4,4 -4,-259 547.5,-259 547.5,4 -4,4"/>
<!-- node1 -->
<g id="node1" class="node"><title>node1</title>
<polygon fill="none" stroke="black" points="0,-72.5 0,-108.5 128,-108.5 128,-72.5 0,-72.5"/>
<text text-anchor="middle" x="49" y="-86.8" font-family="Times New Roman,serif" font-size="14.00">NumericLiteral</text>
<polyline fill="none" stroke="black" points="98,-72.5 98,-108.5 "/>
<text text-anchor="middle" x="113" y="-86.8" font-family="Times New Roman,serif" font-size="14.00">12</text>
</g>
<!-- note1 -->
<g id="node6" class="node"><title>note1</title>
<polygon fill="lightyellow" stroke="black" points="89,-36 33,-36 33,-0 95,-0 95,-30 89,-36"/>
<polyline fill="none" stroke="black" points="89,-36 89,-30 "/>
<polyline fill="none" stroke="black" points="95,-30 89,-30 "/>
<text text-anchor="middle" x="64" y="-14.3" font-family="Times New Roman,serif" font-size="14.00">type=int</text>
</g>
<!-- node1&#45;&gt;note1 -->
<g id="edge5" class="edge"><title>node1&#45;&gt;note1</title>
<path fill="none" stroke="gray" stroke-dasharray="5,2" d="M64,-72.4339C64,-61.5126 64,-47.3843 64,-36.3987"/>
</g>
<!-- node2 -->
<g id="node2" class="node"><title>node2</title>
<polygon fill="none" stroke="black" points="95,-145.5 95,-181.5 289,-181.5 289,-145.5 95,-145.5"/>
<text text-anchor="middle" x="149" y="-159.8" font-family="Times New Roman,serif" font-size="14.00">BinaryOperation</text>
<polyline fill="none" stroke="black" points="203,-145.5 203,-181.5 "/>
<text text-anchor="middle" x="246" y="-159.8" font-family="Times New Roman,serif" font-size="14.00">MULTIPLY</text>
</g>
<!-- node2&#45;&gt;node1 -->
<g id="edge1" class="edge"><title>node2&#45;&gt;node1</title>
<path fill="none" stroke="black" d="M161.341,-145.494C144.053,-135.904 122.261,-123.817 103.682,-113.511"/>
<polygon fill="black" stroke="black" points="105.295,-110.404 94.8526,-108.614 101.9,-116.525 105.295,-110.404"/>
</g>
<!-- node3 -->
<g id="node3" class="node"><title>node3</title>
<polygon fill="none" stroke="black" points="146,-72.5 146,-108.5 228,-108.5 228,-72.5 146,-72.5"/>
<text text-anchor="middle" x="177" y="-86.8" font-family="Times New Roman,serif" font-size="14.00">Variable</text>
<polyline fill="none" stroke="black" points="208,-72.5 208,-108.5 "/>
<text text-anchor="middle" x="218" y="-86.8" font-family="Times New Roman,serif" font-size="14.00">i</text>
</g>
<!-- node2&#45;&gt;node3 -->
<g id="edge2" class="edge"><title>node2&#45;&gt;node3</title>
<path fill="none" stroke="black" d="M190.79,-145.313C190.225,-137.289 189.539,-127.547 188.906,-118.569"/>
<polygon fill="black" stroke="black" points="192.393,-118.258 188.199,-108.529 185.41,-118.75 192.393,-118.258"/>
</g>
<!-- note2 -->
<g id="node7" class="node"><title>note2</title>
<polygon fill="lightyellow" stroke="black" points="327.5,-108.5 246.5,-108.5 246.5,-72.5 333.5,-72.5 333.5,-102.5 327.5,-108.5"/>
<polyline fill="none" stroke="black" points="327.5,-108.5 327.5,-102.5 "/>
<polyline fill="none" stroke="black" points="333.5,-102.5 327.5,-102.5 "/>
<text text-anchor="middle" x="290" y="-86.8" font-family="Times New Roman,serif" font-size="14.00">type=double</text>
</g>
<!-- node2&#45;&gt;note2 -->
<g id="edge6" class="edge"><title>node2&#45;&gt;note2</title>
<path fill="none" stroke="gray" stroke-dasharray="5,2" d="M215.723,-145.313C231.131,-134.15 251.131,-119.66 266.495,-108.529"/>
</g>
<!-- note3 -->
<g id="node8" class="node"><title>note3</title>
<polygon fill="lightyellow" stroke="black" points="224.5,-36 143.5,-36 143.5,-0 230.5,-0 230.5,-30 224.5,-36"/>
<polyline fill="none" stroke="black" points="224.5,-36 224.5,-30 "/>
<polyline fill="none" stroke="black" points="230.5,-30 224.5,-30 "/>
<text text-anchor="middle" x="187" y="-14.3" font-family="Times New Roman,serif" font-size="14.00">type=double</text>
</g>
<!-- node3&#45;&gt;note3 -->
<g id="edge7" class="edge"><title>node3&#45;&gt;note3</title>
<path fill="none" stroke="gray" stroke-dasharray="5,2" d="M187,-72.4339C187,-61.5126 187,-47.3843 187,-36.3987"/>
</g>
<!-- node4 -->
<g id="node4" class="node"><title>node4</title>
<polygon fill="none" stroke="black" points="301,-218.5 301,-254.5 455,-254.5 455,-218.5 301,-218.5"/>
<text text-anchor="middle" x="355" y="-232.8" font-family="Times New Roman,serif" font-size="14.00">BinaryOperation</text>
<polyline fill="none" stroke="black" points="409,-218.5 409,-254.5 "/>
<text text-anchor="middle" x="432" y="-232.8" font-family="Times New Roman,serif" font-size="14.00">ADD</text>
</g>
<!-- node4&#45;&gt;node2 -->
<g id="edge3" class="edge"><title>node4&#45;&gt;node2</title>
<path fill="none" stroke="black" d="M333.448,-218.494C307.299,-208.512 274.059,-195.824 246.373,-185.255"/>
<polygon fill="black" stroke="black" points="247.423,-181.91 236.833,-181.614 244.927,-188.45 247.423,-181.91"/>
</g>
<!-- node5 -->
<g id="node5" class="node"><title>node5</title>
<polygon fill="none" stroke="black" points="317.5,-145.5 317.5,-181.5 438.5,-181.5 438.5,-145.5 317.5,-145.5"/>
<text text-anchor="middle" x="366.5" y="-159.8" font-family="Times New Roman,serif" font-size="14.00">NumericLiteral</text>
<polyline fill="none" stroke="black" points="415.5,-145.5 415.5,-181.5 "/>
<text text-anchor="middle" x="427" y="-159.8" font-family="Times New Roman,serif" font-size="14.00">5</text>
</g>
<!-- node4&#45;&gt;node5 -->
<g id="edge4" class="edge"><title>node4&#45;&gt;node5</title>
<path fill="none" stroke="black" d="M378,-218.313C378,-210.289 378,-200.547 378,-191.569"/>
<polygon fill="black" stroke="black" points="381.5,-191.529 378,-181.529 374.5,-191.529 381.5,-191.529"/>
</g>
<!-- note4 -->
<g id="node9" class="node"><title>note4</title>
<polygon fill="lightyellow" stroke="black" points="537.5,-181.5 456.5,-181.5 456.5,-145.5 543.5,-145.5 543.5,-175.5 537.5,-181.5"/>
<polyline fill="none" stroke="black" points="537.5,-181.5 537.5,-175.5 "/>
<polyline fill="none" stroke="black" points="543.5,-175.5 537.5,-175.5 "/>
<text text-anchor="middle" x="500" y="-159.8" font-family="Times New Roman,serif" font-size="14.00">type=double</text>
</g>
<!-- node4&#45;&gt;note4 -->
<g id="edge8" class="edge"><title>node4&#45;&gt;note4</title>
<path fill="none" stroke="gray" stroke-dasharray="5,2" d="M407.222,-218.494C426.396,-207.335 451.382,-192.794 470.594,-181.614"/>
</g>
<!-- note5 -->
<g id="node10" class="node"><title>note5</title>
<polygon fill="lightyellow" stroke="black" points="408,-108.5 352,-108.5 352,-72.5 414,-72.5 414,-102.5 408,-108.5"/>
<polyline fill="none" stroke="black" points="408,-108.5 408,-102.5 "/>
<polyline fill="none" stroke="black" points="414,-102.5 408,-102.5 "/>
<text text-anchor="middle" x="383" y="-86.8" font-family="Times New Roman,serif" font-size="14.00">type=int</text>
</g>
<!-- node5&#45;&gt;note5 -->
<g id="edge9" class="edge"><title>node5&#45;&gt;note5</title>
<path fill="none" stroke="gray" stroke-dasharray="5,2" d="M379.21,-145.313C379.996,-134.15 381.017,-119.66 381.801,-108.529"/>
</g>
</g>
</svg>
