<?xml version="1.0" encoding="UTF-8" standalone="no"?>
<!DOCTYPE svg PUBLIC "-//W3C//DTD SVG 1.1//EN"
 "http://www.w3.org/Graphics/SVG/1.1/DTD/svg11.dtd">
<!-- Generated by graphviz version 2.38.0 (20140413.2041)
 -->
<!-- Title: G Pages: 1 -->
<svg width="496pt" height="45pt"
 viewBox="0.00 0.00 496.00 45.00" xmlns="http://www.w3.org/2000/svg" xmlns:xlink="http://www.w3.org/1999/xlink">
<g id="graph0" class="graph" transform="scale(1 1) rotate(0) translate(4 41)">
<title>G</title>
<polygon fill="white" stroke="none" points="-4,4 -4,-41 492,-41 492,4 -4,4"/>
<!-- token1 -->
<g id="node1" class="node"><title>token1</title>
<polygon fill="none" stroke="black" points="0,-0.5 0,-36.5 78,-36.5 78,-0.5 0,-0.5"/>
<text text-anchor="middle" x="24" y="-14.8" font-family="Times New Roman,serif" font-size="14.00">NUM</text>
<polyline fill="none" stroke="black" points="48,-0.5 48,-36.5 "/>
<text text-anchor="middle" x="63" y="-14.8" font-family="Times New Roman,serif" font-size="14.00">12</text>
</g>
<!-- token2 -->
<g id="node2" class="node"><title>token2</title>
<polygon fill="none" stroke="black" points="114,-0.5 114,-36.5 184,-36.5 184,-0.5 114,-0.5"/>
<text text-anchor="middle" x="137.5" y="-14.8" font-family="Times New Roman,serif" font-size="14.00">MUL</text>
<polyline fill="none" stroke="black" points="161,-0.5 161,-36.5 "/>
<text text-anchor="middle" x="172.5" y="-14.8" font-family="Times New Roman,serif" font-size="14.00">*</text>
</g>
<!-- token1&#45;&gt;token2 -->
<g id="edge1" class="edge"><title>token1&#45;&gt;token2</title>
<path fill="none" stroke="black" d="M78.0768,-18.5C86.3664,-18.5 95.2059,-18.5 103.713,-18.5"/>
<polygon fill="black" stroke="black" points="103.865,-22.0001 113.865,-18.5 103.865,-15.0001 103.865,-22.0001"/>
</g>
<!-- token3 -->
<g id="node3" class="node"><title>token3</title>
<polygon fill="none" stroke="black" points="220,-0.5 220,-36.5 274,-36.5 274,-0.5 220,-0.5"/>
<text text-anchor="middle" x="236" y="-14.8" font-family="Times New Roman,serif" font-size="14.00">ID</text>
<polyline fill="none" stroke="black" points="252,-0.5 252,-36.5 "/>
<text text-anchor="middle" x="263" y="-14.8" font-family="Times New Roman,serif" font-size="14.00">i</text>
</g>
<!-- token2&#45;&gt;token3 -->
<g id="edge2" class="edge"><title>token2&#45;&gt;token3</title>
<path fill="none" stroke="black" d="M184.116,-18.5C192.377,-18.5 201.238,-18.5 209.6,-18.5"/>
<polygon fill="black" stroke="black" points="209.841,-22.0001 219.841,-18.5 209.841,-15.0001 209.841,-22.0001"/>
</g>
<!-- token4 -->
<g id="node4" class="node"><title>token4</title>
<polygon fill="none" stroke="black" points="310,-0.5 310,-36.5 381,-36.5 381,-0.5 310,-0.5"/>
<text text-anchor="middle" x="333" y="-14.8" font-family="Times New Roman,serif" font-size="14.00">ADD</text>
<polyline fill="none" stroke="black" points="356,-0.5 356,-36.5 "/>
<text text-anchor="middle" x="368.5" y="-14.8" font-family="Times New Roman,serif" font-size="14.00">+</text>
</g>
<!-- token3&#45;&gt;token4 -->
<g id="edge3" class="edge"><title>token3&#45;&gt;token4</title>
<path fill="none" stroke="black" d="M274.114,-18.5C281.978,-18.5 290.842,-18.5 299.562,-18.5"/>
<polygon fill="black" stroke="black" points="299.663,-22.0001 309.663,-18.5 299.663,-15.0001 299.663,-22.0001"/>
</g>
<!-- token5 -->
<g id="node5" class="node"><title>token5</title>
<polygon fill="none" stroke="black" points="417,-0.5 417,-36.5 488,-36.5 488,-0.5 417,-0.5"/>
<text text-anchor="middle" x="441" y="-14.8" font-family="Times New Roman,serif" font-size="14.00">NUM</text>
<polyline fill="none" stroke="black" points="465,-0.5 465,-36.5 "/>
<text text-anchor="middle" x="476.5" y="-14.8" font-family="Times New Roman,serif" font-size="14.00">5</text>
</g>
<!-- token4&#45;&gt;token5 -->
<g id="edge4" class="edge"><title>token4&#45;&gt;token5</title>
<path fill="none" stroke="black" d="M381.172,-18.5C389.326,-18.5 398.131,-18.5 406.66,-18.5"/>
<polygon fill="black" stroke="black" points="406.865,-22.0001 416.864,-18.5 406.864,-15.0001 406.865,-22.0001"/>
</g>
</g>
</svg>
